HIERARCHY
ROOT Hips
{
	OFFSET -0.179506 -22.333345 2.821913
	CHANNELS 6 Xposition Yposition Zposition Zrotation Yrotation Xrotation 
	JOINT LeftUpLeg
	{
		OFFSET 6.951974 -9.140623 -0.681533
		CHANNELS 3 Zrotation Yrotation Xrotation
		JOINT LeftLeg
		{
			OFFSET 3.427654 -37.519855 -0.449580
			CHANNELS 3 Zrotation Yrotation Xrotation
			JOINT LeftFoot
			{
				OFFSET -1.359570 -39.796059 -4.369333
				CHANNELS 3 Zrotation Yrotation Xrotation
				JOINT LeftToe
				{
					OFFSET 2.635814 -5.579078 11.928840
					CHANNELS 3 Zrotation Yrotation Xrotation
					End Site
					{
						OFFSET 0.000000 0.000000 0.000000
					}
				}
			}
		}
	}
	JOINT RightUpLeg
	{
		OFFSET -6.767048 -9.052170 -0.431982
		CHANNELS 3 Zrotation Yrotation Xrotation
		JOINT RightLeg
		{
			OFFSET -3.829005 -38.256897 -0.885003
			CHANNELS 3 Zrotation Yrotation Xrotation
			JOINT RightFoot
			{
				OFFSET 1.577377 -39.841461 -4.231180
				CHANNELS 3 Zrotation Yrotation Xrotation
				JOINT RightToe
				{
					OFFSET -2.537174 -4.814398 12.334795
					CHANNELS 3 Zrotation Yrotation Xrotation
					End Site
					{
						OFFSET 0.000000 0.000000 0.000000
					}
				}
			}
		}
	}
	JOINT Spine
	{
		OFFSET -0.253288 10.896323 -2.669631
		CHANNELS 3 Zrotation Yrotation Xrotation
		JOINT Spine1
		{
			OFFSET 0.548704 13.518043 0.109247
			CHANNELS 3 Zrotation Yrotation Xrotation
			JOINT Spine2
			{
				OFFSET 0.145701 5.292222 2.542457
				CHANNELS 3 Zrotation Yrotation Xrotation
				JOINT Neck
				{
					OFFSET -0.277840 21.387037 -4.285703
					CHANNELS 3 Zrotation Yrotation Xrotation
					JOINT Head
					{
						OFFSET 0.515184 6.496960 5.134897
						CHANNELS 3 Zrotation Yrotation Xrotation
						End Site
						{
							OFFSET 0.000000 0.000000 0.000000
						}
					}
				}
				JOINT LeftShoulder
				{
					OFFSET 7.884473 12.174932 -3.408961
					CHANNELS 3 Zrotation Yrotation Xrotation
					JOINT LeftArm
					{
						OFFSET 9.097692 3.046888 -0.886815
						CHANNELS 3 Zrotation Yrotation Xrotation
						JOINT LeftForeArm
						{
							OFFSET 25.961220 -1.277207 -2.745643
							CHANNELS 3 Zrotation Yrotation Xrotation
							JOINT LeftHand
							{
								OFFSET 24.923361 0.898606 -0.117091
								CHANNELS 3 Zrotation Yrotation Xrotation
								End Site
								{
									OFFSET 0.000000 0.000000 0.000000
								}
							}
						}
					}
				}
				JOINT RightShoulder
				{
					OFFSET -8.175920 11.883285 -3.861528
					CHANNELS 3 Zrotation Yrotation Xrotation
					JOINT RightArm
					{
						OFFSET -9.601238 3.255117 -0.914307
						CHANNELS 3 Zrotation Yrotation Xrotation
						JOINT RightForeArm
						{
							OFFSET -25.374195 -1.332924 -2.140099
							CHANNELS 3 Zrotation Yrotation Xrotation
							JOINT RightHand
							{
								OFFSET -25.529810 0.777228 -0.555919
								CHANNELS 3 Zrotation Yrotation Xrotation
								End Site
								{
									OFFSET 0.000000 0.000000 0.000000
								}
							}
						}
					}
				}
			}
		}
	}
}
MOTION
Frames: 10
Frame Time: 0.033333
-0.179506 100.141151 2.821913 -179.155045 0.370074 -179.882279 -3.248664 -0.881985 3.981576 -2.049329 -3.552239 8.391768 2.439040 9.439377 -17.604572 4.312004 0.868448 1.129083 2.091063 -1.217411 2.667427 -0.947638 -0.899278 13.114177 0.891528 -5.552279 -14.010996 4.454924 -1.834635 0.102679 -1.725608 2.149347 0.821824 3.893005 -3.415993 2.804083 -2.309405 -0.395198 -3.511242 0.397321 0.904163 -0.504340 1.334233 -0.874234 0.122751 -23.256688 5.008147 4.009392 -55.533080 -5.071760 14.859921 -2.132181 -35.511990 20.650286 1.563243 -12.925006 4.525513 18.571628 2.232266 0.907946 56.870479 -0.796474 19.919299 2.823397 29.717802 21.233681 2.588390 8.316334 4.656312 
-0.219738 100.204018 2.803168 -179.210701 0.450376 -179.681693 -3.375851 -0.915686 3.917496 -1.934679 -3.136743 8.117321 2.284867 9.246536 -17.335999 4.349275 0.879553 1.156432 2.028914 -1.156501 2.640663 -1.002188 -0.857677 12.739749 1.065678 -5.564631 -13.757460 4.434294 -1.851330 0.153793 -1.691777 2.143851 0.659746 3.912262 -3.447156 2.801754 -2.347907 -0.370260 -3.574659 0.396989 0.780928 -0.453692 1.429959 -0.802430 0.189642 -23.298715 5.007159 4.110891 -55.399809 -4.989797 15.094430 -2.401637 -35.717616 21.181788 1.455532 -13.087609 5.108259 18.571730 2.254639 0.894345 56.886023 -0.801323 19.963161 2.791035 29.522258 21.419151 2.807812 8.303680 5.247366 
-0.231811 100.282158 2.666394 -179.255575 0.748345 -179.450017 -3.466978 -0.987104 3.860566 -1.928953 -2.881097 7.919630 2.051311 9.289965 -16.957991 4.433476 0.888346 1.154602 1.922544 -0.977117 2.313359 -0.977697 -0.771671 12.978218 1.289928 -5.520712 -13.469366 4.482205 -1.879342 0.199856 -1.683107 2.046819 0.514160 3.899984 -3.522330 2.753517 -2.357380 -0.376739 -3.553588 0.352339 0.790913 -0.513253 1.554631 -0.622056 0.102229 -23.167121 4.980294 4.224479 -55.399659 -4.888981 15.220424 -2.653201 -35.692896 21.524475 1.566602 -13.181267 5.278267 18.381061 2.260679 0.838553 56.932167 -0.876009 20.023319 3.155291 29.644164 22.007895 2.935636 8.278490 5.354436 
-0.052496 100.368896 2.577318 -179.378364 1.204030 -179.231061 -3.489579 -1.054791 3.731349 -1.999098 -2.684649 7.831141 1.722578 9.416456 -16.569381 4.538377 0.905747 1.126326 1.794663 -0.730851 1.699515 -0.868183 -0.722436 13.684933 1.444960 -5.399983 -13.257004 4.551496 -1.903276 0.241469 -1.597779 1.888477 0.442696 3.850328 -3.603875 2.658171 -2.371857 -0.397086 -3.463470 0.305843 0.862564 -0.636894 1.650748 -0.390621 0.059187 -22.960117 4.891435 4.252647 -55.417824 -4.907588 15.209076 -2.620127 -35.464157 21.403196 1.866833 -13.339766 5.178764 18.201277 2.340316 0.745353 56.953207 -0.942713 20.113035 3.736416 30.048152 22.818826 2.793864 8.383429 5.276361 
0.039553 100.449005 2.388797 -179.503010 1.731833 -178.902944 -3.549288 -1.167762 3.546633 -2.166582 -2.562218 7.756240 1.373093 9.635688 -16.163794 4.596733 0.924198 1.098110 1.589409 -0.417020 1.003273 -0.756332 -0.657496 14.431837 1.674541 -5.300190 -13.014836 4.668021 -1.929672 0.278367 -1.546115 1.661315 0.349471 3.762985 -3.667434 2.539431 -2.418702 -0.436983 -3.377190 0.218596 0.870401 -0.817578 1.759972 -0.160369 -0.073720 -22.727015 4.791580 4.206273 -55.458829 -4.932668 15.275143 -2.501891 -35.342535 21.141022 2.134733 -13.607380 5.080440 17.893394 2.348997 0.658021 57.025415 -1.052952 20.213025 4.163809 30.341698 23.366837 2.638834 8.516555 5.086758 
0.286963 100.483528 2.142790 -179.794185 2.531828 -178.569865 -3.704835 -1.291162 3.125033 -2.429033 -2.563250 8.217910 1.002843 10.092100 -15.955145 4.684009 0.928996 1.009158 1.289968 -0.042819 -0.055413 -0.708246 -0.561528 15.887662 1.847032 -5.074429 -13.080259 4.779618 -1.928656 0.306271 -1.422536 1.446804 0.427084 3.568530 -3.712953 2.373855 -2.515074 -0.480029 -3.292196 0.068135 0.841728 -0.955949 1.858325 0.056899 -0.398005 -22.447759 4.608175 4.072142 -55.348850 -4.994980 15.193015 -2.097624 -35.368746 20.340927 2.621400 -14.014828 4.740599 17.465792 2.359558 0.592762 57.138537 -1.320949 20.272532 4.610568 31.087427 23.964629 2.254210 8.758262 4.855063 
0.572854 100.404205 1.720183 179.722946 3.615315 -178.240935 -3.980393 -1.243523 2.676110 -2.906652 -2.597898 8.991823 0.743845 10.570877 -16.056886 4.801222 0.910219 0.868959 0.695221 0.265075 -1.250498 -0.595088 -0.288619 17.800243 2.035551 -4.715560 -13.620077 4.875627 -1.911807 0.325523 -1.309953 1.208891 0.598739 3.298857 -3.811427 2.291337 -2.740245 -0.512099 -3.281852 -0.152253 0.911354 -1.151598 1.864802 0.287632 -0.944882 -22.250465 4.292053 3.807600 -54.943057 -5.157123 14.833753 -1.478345 -35.307843 19.103733 3.125930 -14.452592 4.692585 17.051748 2.329298 0.550094 57.033927 -1.693455 20.330930 5.055879 32.143388 24.700593 1.753279 9.105337 4.832417 
0.821715 100.136215 1.237160 179.009449 4.621042 -177.861585 -4.387453 -1.200896 1.926058 -3.603402 -2.733790 10.339819 0.754765 10.728893 -16.695311 4.998678 0.884901 0.692063 -0.254324 0.497434 -2.837277 -0.418464 0.001434 20.432833 2.064292 -4.308979 -14.753331 4.921136 -1.887202 0.352393 -1.233794 1.080146 0.895452 2.965317 -3.967136 2.266293 -3.015359 -0.505747 -3.272921 -0.358829 1.046794 -1.361350 1.808901 0.503665 -1.470060 -22.082889 3.712707 3.384937 -54.381256 -5.522570 14.404812 -0.646586 -35.041277 17.477112 4.198033 -14.914540 4.448204 16.480560 2.381831 0.459176 56.707174 -2.124966 20.490166 5.481442 33.405532 25.574303 1.049281 9.498072 4.886166 
0.948423 99.581886 0.366946 178.026378 6.153787 -177.457286 -5.032998 -1.141359 1.128567 -4.447345 -3.026255 12.275787 1.015617 10.166137 -17.932589 5.163226 0.869682 0.538471 -1.617354 0.687717 -4.431964 -0.426962 0.800100 23.450625 2.062723 -4.000750 -16.640605 4.955936 -1.883758 0.302672 -1.228991 0.956298 1.189606 2.550190 -4.085379 2.286627 -3.484383 -0.497187 -3.206405 -0.547056 1.366331 -1.619046 1.568888 0.715704 -2.189921 -22.054124 3.186498 2.991328 -53.356014 -5.863090 13.907841 0.270596 -34.648490 15.624400 6.149479 -15.123677 4.631576 16.053254 2.492586 0.365314 56.124331 -2.478294 20.736094 5.746584 34.942027 26.183894 -0.413395 9.714526 4.971871 
1.137043 98.737640 0.326624 176.633863 7.396550 -177.279444 -5.536967 -0.977724 0.078509 -5.391048 -3.518457 14.385500 1.444322 8.230444 -19.960691 5.425565 0.807958 0.271431 -3.124485 0.704587 -5.963875 -0.600384 1.847361 26.298935 1.705787 -4.316079 -19.629694 4.934486 -1.868711 0.257279 -1.125135 0.859292 1.648920 2.153438 -4.191534 2.349885 -4.107985 -0.525368 -3.196403 -0.757371 1.629349 -1.941973 1.099787 0.802743 -2.981142 -22.254478 2.786795 2.610829 -52.253581 -6.528092 13.164683 1.286587 -33.481592 13.505339 7.920060 -15.356567 4.345037 15.969465 2.542755 0.058300 55.564398 -2.261607 20.832225 5.617398 35.868135 26.484997 -1.343021 9.894161 5.089820 
